<?xml version="1.0" encoding="UTF-8"?>
<svg id="Layer_2" data-name="Layer 2" xmlns="http://www.w3.org/2000/svg" viewBox="0 0 46.87 73.93">
  <defs>
    <style>
      .cls-1 {
        fill: #f7941d;
      }

      .cls-2 {
        fill: #fbb040;
      }

      .cls-3 {
        fill: #231f20;
      }
    </style>
  </defs>
  <path class="cls-1" d="M27.54,9.43c-.58,7.98,.99,15.9,2.57,23.69,.27,1.32,1.84,2.09,3.08,1.75,1.38-.38,2.02-1.75,1.75-3.08-1.5-7.37-2.95-14.79-2.39-22.36,.1-1.35-1.22-2.5-2.5-2.5-1.43,0-2.4,1.15-2.5,2.5h0Z"/>
  <path class="cls-1" d="M9.62,26.61c-.47,4.07,.76,8.52,5.13,9.78s8.48-1.44,11.11-4.64,4.35-7.43,4.98-11.68c.36-2.46,.48-4.92,.39-7.4-.05-1.28-.18-2.54-.26-3.82-.02-.35,.02-.71-.01-1.06-.05-.54,.16-.28,.01-.25,2.37-.44,1.37-4.06-1-3.62-4.1,.76-2.51,6.94-2.47,9.7,.06,3.99-.37,8.13-2.07,11.79-1.41,3.04-3.88,6.56-7.34,7.39-1.5,.36-3.24,.04-4.14-1.31s-.78-3.31-.6-4.88c.12-1.01-.94-1.88-1.88-1.88-1.11,0-1.76,.86-1.88,1.88h0Z"/>
  <path class="cls-1" d="M30.86,6.19c2.41,0,2.42-3.75,0-3.75s-2.42,3.75,0,3.75h0Z"/>
  <path class="cls-1" d="M30.38,13.73c.92,4.23,1.95,8.46,2.74,12.71,.39,2.12-.63,3.42-1.85,5.04-1.31,1.75-2.63,3.5-3.94,5.25-.61,.82-.12,2.09,.67,2.57,.95,.57,1.96,.13,2.57-.67,1.41-1.87,2.82-3.74,4.22-5.62s2.4-3.76,2.16-6.14-.91-4.66-1.41-6.95l-1.55-7.17c-.51-2.36-4.13-1.36-3.62,1h0Z"/>
  <path class="cls-1" d="M28.53,25.33c-3.82,14.95-4.59,30.43-5.32,45.78h3.75c.07-8.4,.25-16.8,.57-25.19,.08-2.06-3.38-2.62-3.68-.5-.78,5.43-.75,10.87,.21,16.27,.33,1.84,1.59,4.89-.73,5.89-2.02,.87-4.86-.11-6.85-.68-4.35-1.26-8.56-3.68-10.56-7.91-.94-1.99-1.06-4.1-.7-6.25,.43-2.53,.81-5.02,.97-7.58,.18-2.7,.29-5.53,1.43-8.04s3.19-4.53,5.13-6.48l-3.2-1.33c.32,6.31-1.74,12.39-1.99,18.66-.2,5.14,1.02,11.94,6.34,14.21,1.57,.67,3.66-.81,2.57-2.57-3.23-5.17-4.98-11.12-5.01-17.22,0-1.48,.07-2.96,.27-4.42,.08-.57,.29-1.1,.37-1.65,.01-.09,.48-.63-.03-.27-.34,.02-.35,.11,0,.28l.26,.27c1.83,1.95,2.14,5.04,2.49,7.57l3.13-1.82c-.52-.49-.71-.92-.68-1.65,.08-2.1-3.19-2.56-3.68-.5s.12,4.72,2.15,5.76c1.08,.55,2.36,.28,3.12-.64,.72-.87,.65-1.88,.85-2.92,.4-2.12,2.02-3.8,3.51-5.25,1.86-1.8,3.84-3.48,5.91-5.03,1.2-.9,1.18-2.34,0-3.24-2.56-1.95-6.1,1.76-7.92,3.29-1.25,1.05-2.42,2.18-3.58,3.33-.54,.54-.78,.36-1.55,.24-.97-.15-1.94-.3-2.91-.46-2.33-.37-3.4,3.04-1,3.62,.23,.05,.21-.05,.28,.19l3.13-1.82c-1.55-1.55-5.71-5.07-7.86-2.76-.59,.64-.64,1.44-.73,2.26-.11,.92-.23,1.84-.38,2.76-.28,1.79-.58,3.58-.81,5.38-.82,6.24-.43,13.17,4.28,17.88l2.65-2.65c-1.6-1.42-2.73-3.18-3.21-5.28-.42-1.82-.62-3.96-2.57-4.82-1.06-.47-2.44-.16-2.75,1.12-1.11,4.54,.97,9.24,4.52,12.14,3.98,3.24,9.12,4.17,14.1,4.62v-3.75c-2.6-.09-4.51-2.42-6.09-4.23l-2.27,2.94c3.5,1.95,7.41,2.94,11.42,2.85l-1.33-3.2c-1.65,1.31-3.41,2.5-5.23,3.56-.89,.52-1.79,1-2.71,1.46-.44,.22-.9,.49-1.37,.63-.23,.11-.47,.15-.72,.14,.32,.08,.41,.32,.29,.7,1.37-1.99-1.88-3.87-3.24-1.89-.98,1.42-.4,3.4,.98,4.33,1.64,1.1,3.52,.47,5.16-.29,3.41-1.59,6.55-3.65,9.49-5.99,1.3-1.04,.19-3.24-1.33-3.2-3.36,.08-6.59-.7-9.53-2.34-1.91-1.07-3.65,1.36-2.27,2.94,2.32,2.66,5.01,5.2,8.74,5.33,2.44,.08,2.37-3.53,0-3.75-3.87-.35-8.01-1.02-11.23-3.37-2.65-1.93-4.58-5.33-3.77-8.65l-2.75,1.12c.32,.14,.26,0,.4,.43s.2,.84,.28,1.26c.18,.95,.41,1.85,.77,2.75,.79,1.95,1.99,3.67,3.57,5.07,1.79,1.59,4.38-.93,2.65-2.65-2.69-2.68-3.56-6.51-3.57-10.2,0-2.22,.28-4.43,.62-6.62,.17-1.09,.35-2.17,.51-3.26,.09-.63,.18-1.26,.27-1.9,.04-.31,.08-.62,.12-.93,.19-.75-.04-.68-.68,.22h-1c1.48,.21,2.91,1.45,3.93,2.47,1.3,1.3,3.68-.01,3.13-1.82-.42-1.42-1.44-2.46-2.9-2.81l-1,3.62c1.61,.25,3.33,.72,4.95,.74s2.67-1.02,3.78-2.12,2.15-2.04,3.3-2.98c.62-.51,1.25-1.01,1.9-1.49,.3-.22,.59-.45,.9-.65l.29-.19c.29-.12,.27-.15-.06-.09v-3.24c-2.74,2.04-5.45,4.22-7.77,6.74-1.03,1.11-2,2.34-2.64,3.72-.34,.72-.62,1.47-.77,2.25-.07,.35-.09,.71-.14,1.07-.01,.09-.02,.18-.02,.27-.18,.55,0,.43,.56-.35h1c.16,.18,.14,.15-.05-.07-.11-.13-.17-.27-.2-.43-.09-.3-.07-.59,0-.89l-3.68-.5c-.06,1.64,.57,3.18,1.78,4.3,1.48,1.38,3.38-.04,3.13-1.82-.48-3.46-1.2-7.37-4.02-9.76-1.51-1.27-3.55-1.36-4.94,.13-1.24,1.33-1.39,3.32-1.58,5.03-.88,7.95,1.1,16.17,5.32,22.94l2.57-2.57c-4.69-2-4.76-8.45-4.37-12.73,.51-5.65,2.17-11.17,1.87-16.89-.08-1.59-2.01-2.52-3.2-1.33-2.02,2.02-4.09,4.11-5.43,6.66s-1.83,5.42-2.07,8.3-.46,5.71-.96,8.57-.54,5.53,.54,8.21c2.05,5.14,6.59,8.46,11.67,10.26,4.38,1.56,12.94,3.54,14.41-2.95,.36-1.58,.05-3.17-.27-4.73-.35-1.71-.63-3.42-.79-5.16-.32-3.57-.25-7.19,.26-10.74l-3.68-.5c-.31,8.39-.5,16.79-.57,25.19-.02,2.42,3.64,2.4,3.75,0,.71-15.02,1.44-30.15,5.18-44.78,.6-2.34-3.02-3.34-3.62-1h0Z"/>
  <path class="cls-1" d="M26.19,71.14c3.53-.5,6.84-2.4,9.74-4.39s5.48-4.04,6.93-7.28c3.22-7.18,2.55-15.67,.97-23.15-.19-.91-1.19-1.46-2.06-1.34-.99,.13-1.51,.9-1.63,1.84-.27,2.25-1.18,5.78-3.88,6.18-3.33,.49-5.05-3.03-5.43-5.76-.14-1-1.42-1.56-2.31-1.31-1.08,.3-1.45,1.3-1.31,2.31,.66,4.74,4.51,9.25,9.68,8.43,4.73-.75,6.48-5.7,6.99-9.85l-3.68,.5c1.38,6.48,2.07,13.97-.59,20.26-1.19,2.81-3.46,4.51-5.93,6.17s-5.38,3.34-8.5,3.78c-1,.14-1.56,1.42-1.31,2.31,.3,1.08,1.3,1.45,2.31,1.31h0Z"/>
  <path class="cls-1" d="M26.8,38.05c-.17,2.43-.25,5.17,.45,7.53s2.54,3.7,4.95,4.06c3.86,.58,11.63,.47,11.23-5.28-.11-1.59-1.98-2.51-3.2-1.33-1.67,1.63-2.01,3.81-2.2,6.04-.09,1.05-.13,2.11-.47,3.12-.41,1.22-1.18,2.3-1.88,3.36-2.66,4.01-6.22,8.52-11.52,8.41l.5,3.68c5.07-.91,10.54-3.05,14.19-6.81,3.29-3.39,4.87-8.99,1.84-13.08-.87-1.18-3.06-1.28-3.43,.45-.73,3.46-1.61,6.79-4.64,8.93s-6.4,4.39-10.09,5.42c-2.32,.64-1.34,4.26,1,3.62,4.22-1.17,8.17-3.67,11.65-6.28s4.82-6.53,5.7-10.68l-3.43,.45c2.36,3.19,.55,7.02-2.12,9.35-3.2,2.78-7.56,4.29-11.67,5.03-2.14,.38-1.55,3.64,.5,3.68,5.88,.12,10.32-3.98,13.54-8.48,1.54-2.15,3.27-4.5,3.76-7.15,.36-1.96-.11-4.89,1.43-6.4l-3.2-1.33c.18,2.54-5.82,1.86-7.25,1.53-1.34-.31-1.62-1.17-1.79-2.45-.24-1.77-.2-3.6-.08-5.38,.16-2.41-3.59-2.4-3.75,0h0Z"/>
  <path class="cls-2" d="M28.75,29.72c-.18,4.61-6.23,5.9-8.54,9.22-.59,.85-.9,1.79-1.18,2.77-.33,1.14-.71,2.72-2.02,3.11-1.57,.47-2.35-1.91-2.72-3.05-.42-1.3-.59-2.63-.56-3.99,.01-.59-.89-.89-1.16-.32-3.19,6.61-4.18,15.17,1.25,20.96,2.3,2.45,5.73,3.92,9.11,3.68,1.82-.13,3.46-.81,5.04-1.7,1.74-.97,3.5-1.98,5.03-3.27,3.1-2.61,4.94-6.42,5.29-10.43,.04-.51-.74-.86-1.07-.44-1.43,1.82-3.63,3.69-6.12,2.86-2.69-.9-2.43-4.48-2.39-6.77,.03-1.42,.25-2.76,.83-4.07,.46-1.04,1-2.03,1.3-3.14,.62-2.31,.44-4.75-.42-6.97-.22-.57-1-.62-1.21,0-.55,1.65-1.1,3.31-1.65,4.96-.26,.78,.91,1.06,1.21,.33,.78-1.96,1.18-3.98,1.2-6.08l-1.23,.17c.43,1.17,.86,2.33,1.29,3.5,.23,.62,1.25,.58,1.23-.17-.06-1.68-.57-3.21-1.58-4.56-.48-.64-1.56-.02-1.08,.63,1.71,2.3,2.27,4.76,1.69,7.58-.53,2.6-1.69,5.04-2.12,7.67-.58,3.51,.54,7.91,4.48,8.84,.78,.19,1.12-1.02,.33-1.21-5.2-1.23-3.65-7.83-2.51-11.37,.68-2.11,1.39-4.29,1.32-6.54-.06-2.1-.88-3.95-2.12-5.61l-1.08,.63c.88,1.18,1.36,2.46,1.41,3.93l1.23-.17c-.43-1.17-.86-2.33-1.29-3.5-.24-.64-1.22-.57-1.23,.17-.03,2-.42,3.9-1.16,5.75l1.21,.33c.55-1.65,1.1-3.31,1.65-4.96h-1.21c.6,1.54,.87,3.16,.7,4.81-.18,1.73-.96,3.16-1.63,4.73-1.05,2.45-1.05,5.5-.67,8.11,.34,2.3,1.74,4.13,4.17,4.36,2.62,.25,4.79-1.44,6.32-3.39l-1.07-.44c-.38,4.3-2.68,8.1-6.23,10.52s-7.45,4.62-11.87,3.08c-4.02-1.4-6.6-5.11-7.46-9.16-.95-4.45,.22-9.03,2.16-13.05l-1.16-.32c-.03,1.62,.19,3.22,.75,4.74,.41,1.12,.94,2.52,1.97,3.22,2.17,1.49,4.18-1.01,4.79-2.87,.54-1.64,.9-3.07,2.18-4.31,1.07-1.03,2.35-1.79,3.56-2.63,2.15-1.5,4.16-3.45,4.27-6.22,.03-.8-1.22-.8-1.25,0h0Z"/>
  <path class="cls-2" d="M29.65,34.8c2.41,0,2.42-3.75,0-3.75s-2.42,3.75,0,3.75h0Z"/>
  <path class="cls-2" d="M14.88,49.26c.81,.27,1.61,.56,2.41,.86,.4,.15,.8,.31,1.19,.46,.23,.09,.45,.18,.68,.28,.11,.05,.23,.09,.34,.14-.14-.06-.15-.06-.03-.01,1.6,.69,3.17,1.43,4.71,2.23,.87,.45,2.08,.25,2.57-.67,.46-.86,.26-2.08-.67-2.57-3.28-1.71-6.7-3.16-10.21-4.34-.93-.31-2.09,.36-2.31,1.31-.24,1.04,.31,1.97,1.31,2.31h0Z"/>
  <path class="cls-2" d="M27.33,34.12c-3.48,5-5.8,10.81-6.71,16.83-.15,1,.25,2.02,1.31,2.31,.89,.24,2.15-.3,2.31-1.31,.87-5.75,3.01-11.16,6.33-15.93,.58-.83,.15-2.08-.67-2.57-.93-.55-1.99-.16-2.57,.67h0Z"/>
  <path class="cls-2" d="M26.69,34.41c-2.51,1.15-4.64,3.14-6.01,5.53-.69,1.21-1.17,2.52-1.49,3.86-.26,1.07-.45,2.48-1.56,2.67l1.44,3.43c.72-.55,1.43-1.1,2.15-1.65,.67-.52,1.1-1.24,.86-2.12-.21-.77-.99-1.41-1.81-1.38-1.11,.05-2.14,.33-3.1,.9-1.45,.86-1.05,2.91,.45,3.43,3.37,1.16,6.62,2.59,9.76,4.28,.82,.44,1.85,.28,2.42-.48,.6-.81,.45-1.7-.15-2.46-1.8-2.3-2.19-5.46-1.35-8.17l-3.68-.5c-.32,2.46-.07,5.1,.88,7.41,.84,2.05,2.39,4.07,4.71,4.45,1,.16,2.02-.26,2.31-1.31,.25-.9-.3-2.14-1.31-2.31-.7-.11-.96-.25-1.46-.83-.35-.41-.7-1.09-.88-1.63-.64-1.87-.76-3.83-.5-5.78,.12-.91-.8-1.74-1.63-1.84-.94-.11-1.77,.43-2.06,1.34-1.27,4.11-.3,8.47,2.32,11.82l2.27-2.94c-3.42-1.84-6.99-3.39-10.65-4.66l.45,3.43c.39-.23,.75-.37,1.21-.39l-.95-3.49c-.72,.55-1.43,1.1-2.15,1.65s-1.17,1.41-.77,2.34,1.26,1.25,2.21,1.09c1.59-.27,2.83-1.56,3.46-2.99,.59-1.35,.74-2.91,1.3-4.22,1-2.37,2.88-4.17,5.2-5.23,.92-.42,1.15-1.75,.67-2.57-.55-.95-1.64-1.1-2.57-.67h0Z"/>
  <path class="cls-2" d="M32.82,50.14c-1.81,1.35-3.48,2.83-4.96,4.54-1.12,1.29-.08,3.83,1.82,3.13,1.73-.63,3.26-1.58,4.49-2.95,1.61-1.78-.92-4.36-2.65-2.65-2.96,2.91-6.88,4.72-11.03,4.99-2.4,.16-2.43,3.65,0,3.75,1.69,.07,3.36-.07,5.02-.37,2.13-.38,1.56-3.65-.5-3.68-1.73-.02-3.44-.34-5.03-1.03-.78-.34-1.63-.35-2.27,.29-.54,.54-.79,1.62-.29,2.27,.33,.44,.66,.88,.99,1.32l1.62-2.82c-1.2,.08-2.27-1.05-3.02-1.87s-1.42-1.9-1.84-2.99c-.9-2.3-.98-4.76-.19-7.1l-3.43,.45c1.18,1.77,2.37,3.54,3.55,5.31,1,1.5,1.96,3.1,3.38,4.24,2.78,2.23,6.36,2.62,9.79,2.87,1.01,.07,1.88-.92,1.88-1.88,0-1.08-.86-1.8-1.88-1.88-2.54-.19-5.63-.35-7.61-2.17-1.14-1.05-1.91-2.47-2.77-3.75-1.04-1.55-2.07-3.1-3.11-4.65-.92-1.37-2.9-1.11-3.43,.45-1.12,3.31-.81,6.91,.59,10.08,1.32,2.98,4.46,6.86,8.07,6.63,1.26-.08,2.54-1.59,1.62-2.82-.33-.44-.66-.88-.99-1.32l-2.57,2.57c2.22,.96,4.5,1.5,6.93,1.54l-.5-3.68c-1.33,.24-2.68,.29-4.03,.24v3.75c5.15-.34,9.99-2.46,13.68-6.09l-2.65-2.65c-.8,.88-1.71,1.58-2.84,1.99l1.82,3.13c1.26-1.45,2.65-2.8,4.2-3.95,.81-.6,1.22-1.62,.67-2.57-.47-.8-1.75-1.28-2.57-.67h0Z"/>
  <path class="cls-2" d="M19.85,53.25c2.3,.76,4.62,1.45,6.97,2.04,1.13,.29,2.33,.53,3.48,.18s2.07-1.25,2.46-2.43c.44-1.34-.98-2.73-2.31-2.31-1.58,.5-3.16,1.03-4.75,1.51-1.43,.43-3,.22-4.47,.21-.8,0-1.61-.01-2.41-.02-.47,0-1.27,.11-1.7-.16-.26-.17-.37-.52-.49-.81-.29-.67-.52-1.36-.91-1.98-1.28-2.04-4.53-.16-3.24,1.89,.82,1.31,1.02,2.83,2.32,3.83,1.55,1.18,3.62,.98,5.46,1s3.83,.25,5.64-.12,3.72-1.14,5.54-1.72l-2.31-2.31s.19-.25,.22-.24c.05,.02-.3,.1-.17,.09-.23,0-.42,0-.66-.04-.87-.16-1.74-.44-2.6-.67-1.71-.47-3.41-.99-5.1-1.55-.96-.32-2.05,.37-2.31,1.31-.28,1.02,.34,1.99,1.31,2.31h0Z"/>
  <path class="cls-2" d="M12.48,43.51c1.61,0,1.61-2.5,0-2.5s-1.61,2.5,0,2.5h0Z"/>
  <path class="cls-2" d="M12.48,42.61c1.61,0,1.61-2.5,0-2.5s-1.61,2.5,0,2.5h0Z"/>
  <path class="cls-2" d="M35.68,51.19c1.61,0,1.61-2.5,0-2.5s-1.61,2.5,0,2.5h0Z"/>
  <path class="cls-2" d="M35.08,52.55c1.61,0,1.61-2.5,0-2.5s-1.61,2.5,0,2.5h0Z"/>
  <path class="cls-1" d="M32.71,33.2c-.5,3.38-.69,6.79-.52,10.2h2.5c-.13-2.18-.53-4.34-1.22-6.41-.36-1.1-2.13-1.27-2.41,0-.26,1.16-.61,2.38-.18,3.55,.39,1.06,1.27,1.96,2.08,2.73s1.74,1.36,2.82,1.63,2.17,.29,3.26,.29c1.61,0,1.61-2.45,0-2.5-1.85-.06-3.73-1.34-4.37-3.11l-2.28,.96c.94,1.91,2.9,3.4,5.1,3.3,1.13-.05,2.2-.46,3.03-1.24,.74-.7,1.14-1.66,1.91-2.32,.51-.44,.45-1.32,0-1.77-.51-.51-1.25-.44-1.77,0-.66,.56-1.05,1.32-1.59,1.98-.39,.48-.89,.78-1.43,.84-1.4,.16-2.49-.81-3.1-2.05s-2.77-.37-2.28,.96c1.04,2.86,3.72,4.86,6.79,4.95v-2.5c-1.5,0-3.02,0-4.19-1.07-.52-.48-1.19-1.09-1.53-1.72-.36-.68,0-1.55,.15-2.24h-2.41c.62,1.87,1.01,3.79,1.13,5.75,.04,.67,.54,1.25,1.25,1.25,.65,0,1.28-.57,1.25-1.25-.16-3.18-.04-6.38,.43-9.54,.1-.67-.17-1.34-.87-1.54-.59-.16-1.44,.2-1.54,.87h0Z"/>
  <path class="cls-3" d="M30.2,2.51c.6,7.67,3.75,14.77,5.1,22.29,.37,2.08,.42,3.92-.27,5.94-.62,1.83-1.19,3.58-1.34,5.52-.21,2.67,.56,7.02,4.29,6.04,1.71-.45,2.78-1.89,3.3-3.51s.42-4.08,2.11-5.04l-1.84-1.41c-.57,1.69,0,3.27,.71,4.82,.79,1.7,1.41,3.37,1.71,5.23s.35,3.9,.36,5.85,.06,4.13-.25,6.15c-1.07,6.94-7.43,12.59-13.62,15.2-6.73,2.83-14.9,2.59-20.91-1.8-2.56-1.88-4.68-4.48-5.88-7.43-1.47-3.59-1.27-7.45-.84-11.23,.27-2.36,.53-4.74,1.11-7.04,.55-2.16,1.44-4.19,2.44-6.17,2.13-4.21,4.4-8.36,6.61-12.53l-2.28-.3c.36,1.99,.85,3.96,1.5,5.88,.49,1.45,1.02,2.96,2.03,4.15,2.26,2.67,5.53,1.4,7.49-.89,4.44-5.18,8.18-12.29,7.8-19.29-.11-2.1-.94-4.27-.62-6.37,.27-1.8,1.57-3.4,3.26-4.07,1.48-.59,.83-3.01-.66-2.41-3.69,1.47-5.51,4.93-5.03,8.81,.27,2.21,.72,4.29,.52,6.54-.18,2.05-.76,4.06-1.53,5.96s-1.84,3.81-2.99,5.58c-1.04,1.6-2.25,3.73-3.91,4.78-2.01,1.27-3.04-1-3.63-2.59-.81-2.19-1.4-4.46-1.81-6.76-.19-1.06-1.8-1.21-2.28-.3-2.14,4.04-4.32,8.06-6.4,12.13-.96,1.88-1.87,3.81-2.51,5.83s-.98,4.25-1.26,6.41c-.54,4.22-1.15,8.58,0,12.76,.93,3.36,2.86,6.43,5.38,8.83,11.58,11.03,31.83,5.37,38.83-8.18,2.18-4.22,2.09-9.03,1.94-13.66-.07-2.3-.29-4.65-.95-6.86-.3-1-.71-1.96-1.16-2.91-.52-1.1-1.14-2.24-.73-3.46,.36-1.07-.93-1.92-1.84-1.41-1.57,.89-2.32,2.48-2.71,4.19-.22,.97-.32,2.07-.79,2.96-.31,.59-1.13,1.51-1.89,1.07s-.6-1.97-.59-2.64c.02-1.12,.18-2.23,.47-3.31,.53-1.96,1.43-3.75,1.5-5.82s-.44-4.31-.91-6.37-1.06-4.13-1.66-6.18c-1.23-4.26-2.5-8.55-2.85-12.99-.12-1.59-2.62-1.61-2.5,0h0Z"/>
</svg>