<?xml version="1.0" encoding="UTF-8"?>
<svg id="Layer_2" data-name="Layer 2" xmlns="http://www.w3.org/2000/svg" viewBox="0 0 95.84 96.51">
  <defs>
    <style>
      .cls-1 {
        fill: #231f20;
      }
    </style>
  </defs>
  <path class="cls-1" d="M45.7,5.15l6.34,.37c.98,.06,1.92-.68,2.28-1.54s.23-2.06-.52-2.73c-.57-.51-1.24-.91-2-1.05-.65-.11-1.27-.13-1.92-.13-1.08,0-2.15,0-3.23,0-.78,0-1.54,.1-2.21,.53-1.07,.68-1.38,1.75-1.49,2.94s.02,2.45,.29,3.62l3.08-3.08c-.07-.01-.13-.03-.2-.06l.6,.25c-.06-.03-.12-.06-.18-.1l.51,.39c-.09-.07-.15-.13-.22-.21l.39,.51c-.04-.06-.08-.11-.11-.18l.25,.6c-.04-.1-.07-.19-.09-.3l.09,.66c0-.07,0-.14,0-.21l-.09,.66c.02-.11,.05-.2,.09-.3l-.25,.6c.03-.06,.07-.12,.11-.18l-.39,.51c.07-.08,.14-.15,.22-.22l-.51,.39c.06-.04,.12-.07,.18-.1l-.6,.25c.8-.29,1.45-.66,1.87-1.43s.4-1.58,.25-2.43l-3.67,2.82c1.29,.72,2.65,.79,4.07,.58,.95-.14,1.85-.47,2.8-.62l-.66,.09c.32-.04,.63-.06,.95-.04l-.66-.09c.11,.02,.2,.04,.31,.08l-.6-.25,.09,.06-.51-.39c.06,.05,.11,.1,.15,.16l-.39-.51c.04,.06,.08,.12,.1,.19l-.25-.6c.05,.14,.09,.28,.11,.43l-.09-.66c.01,.15,.01,.28,0,.43l.09-.66c-.03,.18-.07,.35-.14,.52l.25-.6c-.11,.25-.24,.47-.4,.68l.39-.51c-.2,.24-.42,.46-.66,.66l.51-.39c-.12,.09-.25,.18-.38,.26-1.11,.69-1.64,2.26-.9,3.42s2.23,1.64,3.42,.9c.92-.58,1.82-1.4,2.29-2.4,.62-1.32,.76-2.84,0-4.15-.43-.75-1.21-1.33-2.06-1.49s-1.58-.08-2.41,.06c-.9,.15-1.76,.47-2.66,.6l.66-.09c-.37,.04-.74,.06-1.11,.02l.66,.09c-.24-.04-.47-.09-.7-.18l.6,.25c-.11-.05-.22-.1-.33-.16-.89-.49-1.97-.42-2.78,.2-.35,.27-.6,.59-.77,1-.23,.55-.23,1.03-.13,1.63l.02,.1-.09-.66c.01,.11,.02,.2,0,.31l.09-.66-.03,.09,.25-.6-.04,.08,.39-.51-.07,.07,.51-.39-.08,.05,.6-.25c-.64,.26-1.23,.49-1.69,1.03-.57,.66-.93,1.46-.93,2.35,0,1.54,1.13,3.02,2.64,3.36,1.9,.43,3.51-1.18,3.08-3.08-.06-.28-.11-.56-.16-.84l.09,.66c-.1-.79-.12-1.59-.02-2.38l-.09,.66c.02-.12,.05-.22,.09-.34l-.25,.6,.06-.1-.39,.51,.08-.09-.51,.39c.05-.05,.11-.09,.18-.11l-.6,.25c.07-.03,.14-.04,.21-.05l-.66,.09c.85-.09,1.73-.02,2.59-.02s1.65-.07,2.46,.04l-.66-.09c.15,.03,.29,.06,.44,.11l-.6-.25c.14,.06,.26,.13,.38,.22l-.51-.39,.08,.07,1.77-4.27-6.34-.37c-1.31-.08-2.56,1.21-2.5,2.5,.06,1.42,1.1,2.42,2.5,2.5h0Z"/>
  <path class="cls-1" d="M48.58,7.02c.9,10.53,1.89,21.24,6.64,30.85,1.43,2.88,5.74,.35,4.32-2.52-4.34-8.76-5.14-18.73-5.96-28.32-.11-1.35-1.07-2.5-2.5-2.5-1.26,0-2.62,1.15-2.5,2.5h0Z"/>
  <path class="cls-1" d="M42.97,6.62c.25,5.76-.51,11.43-2.32,16.91-.89,2.68-1.87,5.32-2.54,8.07-.7,2.93-1.14,5.93-1.36,8.94-.1,1.35,1.22,2.5,2.5,2.5,1.44,0,2.4-1.15,2.5-2.5,.21-2.8,.66-5.56,1.35-8.29s1.78-5.5,2.65-8.26c1.75-5.59,2.48-11.52,2.22-17.37-.14-3.2-5.14-3.22-5,0h0Z"/>
  <path class="cls-1" d="M37.03,39.78l-.64,5.72h5c.13-1.69,.26-3.37,.4-5.06,.11-1.35-1.22-2.5-2.5-2.5-1.44,0-2.39,1.15-2.5,2.5-.83,10.45-1.67,21.01-.38,31.47,.3,2.47,.8,4.95,.64,7.46s-.93,4.67-1.3,7.02-.74,5.2,1.17,7.11c1.56,1.56,3.95,2.18,6.06,2.58,5.42,1.02,10.92,.24,15.86-2.2,1.21-.6,1.54-2.31,.9-3.42-.72-1.23-2.2-1.5-3.42-.9-3.49,1.72-7.53,2.36-11.38,1.8-.98-.14-1.96-.38-2.91-.67-.32-.1-.65-.19-.95-.34-.16-.08-.31-.17-.46-.26-.1-.06-.36-.44-.21-.14s.01-.11,.03-.2c.03-.2,0-.45,0-.66,.02-.46,.06-.92,.12-1.38,.16-1.14,.44-2.26,.68-3.38,.49-2.25,.91-4.52,.8-6.83s-.54-4.54-.79-6.81c-.51-4.69-.6-9.42-.47-14.13,.14-5.38,.57-10.75,.99-16.12h-5c-.13,1.69-.26,3.37-.4,5.06-.11,1.35,1.22,2.5,2.5,2.5,1.48,0,2.35-1.15,2.5-2.5l.64-5.72c.15-1.34-1.26-2.5-2.5-2.5-1.48,0-2.35,1.15-2.5,2.5h0Z"/>
  <path class="cls-1" d="M53.6,35.2c2.15,3.88,2.84,8.28,2.97,12.67,.14,4.87-.25,9.78-.63,14.63-.2,2.59-.44,5.18-.71,7.77s-.66,4.99-.65,7.5,.65,4.84,1.32,7.26c.49,1.78,.92,3.67-.18,5.3-1.81,2.67,2.52,5.18,4.32,2.52,2.32-3.42,1.15-7.42,.14-11.06-1.1-3.95-.3-8,.11-12,.44-4.28,.79-8.58,1.04-12.88,.23-3.87,.43-7.75,.11-11.62-.36-4.42-1.35-8.71-3.51-12.61-1.56-2.82-5.88-.3-4.32,2.52h0Z"/>
  <path class="cls-1" d="M53.91,85.18l-7.41-.09c-2.28-.03-4.58-.17-6.63,1-1.18,.67-1.57,2.26-.9,3.42,1.89,3.28,5.96,3.46,9.33,3.25,2.12-.14,4.25-.46,6.31-1,.96-.25,2.07-.49,2.82-1.18,.91-.84,1.19-2.04,.84-3.22-.3-1.02-.9-2.04-1.35-3-.41-.89-.79-1.8-1.23-2.67-1.06-2.08-2.99-2.63-5.17-2.12-1.88,.45-3.72,1.22-5.46,2.05-1.02,.49-2.49,1.54-3.61,.83l-.6,4.57c1.47-.61,3.11-.11,4.64,.03,1.88,.18,3.74,.14,5.59-.19s4.11-1.01,4.41-3.15c.14-1.02-.31-1.71-.65-2.62-.08-.2-.11-.52-.2-.66,0,.01,0,.02-.02,.01-.58,.68-1.29,.45-2.13-.7l1.84-2.41c-1.34,.21-2.82-.32-4.14-.49s-2.7-.11-4.06,.12c-2.71,.46-5.21,1.83-7.19,3.72l4.18,1.1c-.31-1.1,3.04-2.06,3.71-2.27,2.42-.78,4.9-1.49,7.44-1.72,3.23-.29,3.2-4.67,0-5-2.77-.28-5.53-.57-8.3-.85-1.32-.14-2.78-.45-4,.27s-1.98,2.35-1.45,3.74c.44,1.16,1.44,1.99,2.74,1.79,1.16-.17,2.25-1.19,2.17-2.46-.51-8.11-3.55-16.3-2.41-24.47l-4.91-.66c.14,4.23,.4,8.45,.8,12.67,.2,2.11,.42,4.21,.68,6.31,.24,1.92,.56,3.71,2.38,4.77,1.6,.94,3.81-.25,3.76-2.16-.18-6.74-.36-13.49-.53-20.23-.08-3.21-5.08-3.22-5,0,.2,8.28,.91,16.52,2.06,24.71,.34,2.44,4.38,2.33,4.82,0,.83-4.37,.98-8.84,1.27-13.26s.59-8.97,.89-13.45h-5c-.28,7.44,.31,14.88,1.69,22.2,.23,1.21,1.61,1.96,2.74,1.79,1.29-.19,2.07-1.18,2.17-2.46,.47-5.93,1.22-11.83,2.24-17.69l-4.91-.66c-.19,7.68-.36,15.36,.19,23.03,.09,1.24,.88,2.3,2.17,2.46,1.13,.13,2.53-.55,2.74-1.79,1.38-8.06,2.75-16.11,4.13-24.17l-4.91-.66c-.15,3.96-.3,7.92-.44,11.87s-.07,7.79-.65,11.6c-.2,1.33,.34,2.69,1.75,3.08,1.18,.32,2.87-.4,3.08-1.75,.63-4.11,.65-8.28,.81-12.43l.46-12.37c.1-2.76-4.43-3.48-4.91-.66-1.38,8.06-2.75,16.11-4.13,24.17l4.91,.66c-.55-7.67-.38-15.35-.19-23.03,.07-2.75-4.42-3.49-4.91-.66-1.1,6.3-1.92,12.65-2.42,19.02l4.91-.66c-1.29-6.88-1.77-13.87-1.51-20.87,.12-3.23-4.79-3.19-5,0-.29,4.32-.57,8.63-.86,12.95s-.36,8.35-1.13,12.43h4.82c-1.09-7.75-1.69-15.56-1.88-23.38h-5c.18,6.74,.36,13.49,.53,20.23l3.76-2.16c.49,.29,.13,.51,.18,0,.02-.2-.08-.5-.1-.7-.12-.89-.21-1.78-.31-2.67-.19-1.78-.36-3.56-.51-5.35-.3-3.57-.5-7.14-.62-10.72-.04-1.24-.92-2.31-2.17-2.46-1.1-.13-2.57,.55-2.74,1.79-1.23,8.78,1.68,17.11,2.23,25.8l4.91-.66-.09-.24v1.33l-.25,.43-1.1,.64c.61-.19,1.64,.12,2.31,.19,.87,.09,1.74,.18,2.61,.27,1.82,.19,3.64,.37,5.45,.56v-5c-3.61,.32-7.26,1.2-10.62,2.56-3.13,1.26-6.42,3.98-5.35,7.77,.52,1.84,2.82,2.4,4.18,1.1,1.48-1.42,3.44-2.36,5.5-2.48,2.62-.15,5.05,.82,7.69,.41,1.16-.18,1.72-1.4,1.84-2.41,.37-3.27-3.83-4.9-6.15-3.01-1.05,.86-1.66,2.17-1.69,3.53-.01,.69,.11,1.41,.33,2.07,.19,.58,.56,1.11,.65,1.72v-1.33l-.09,.24,1.15-1.49c-1.54,.97-4.03,.77-5.77,.63-2.14-.17-4.33-.75-6.4,.11-1.95,.8-2.55,3.34-.6,4.57,3.24,2.05,6.39,.13,9.44-1.2,.66-.29,1.34-.53,2.03-.75,.34-.11,.69-.22,1.04-.31,.26-.07,.51-.14,.77-.2l-.99-.43c-.08,.07,1.06,2.28,1.19,2.55,.21,.45,.41,.89,.62,1.34,.08,.17,.36,1.04,.38,.79l.73-1.77-.24,.25,1.1-.64c-2.3,.94-4.95,1.29-7.41,1.39-1.21,.05-3.66,.29-4.29-.81l-.9,3.42c1.35-.77,3.58-.33,5.06-.31l6.46,.08c3.22,.04,3.22-4.96,0-5h0Z"/>
  <path class="cls-1" d="M45.84,6.89c.14,16.71,.81,33.42,2,50.09,.1,1.35,1.08,2.5,2.5,2.5,1.28,0,2.6-1.15,2.5-2.5-1.2-16.67-1.87-33.38-2-50.09-.03-3.22-5.03-3.22-5,0h0Z"/>
  <path class="cls-1" d="M47.67,18.37c-.14,13.82,1.22,27.63,4,41.16,.56,2.74,5.09,2.16,4.91-.66-.34-5.33-.67-10.65-1.01-15.98s-.24-10.53-1.51-15.54c-.68-2.66-5.2-2.2-4.91,.66,.42,4.11,1.56,8.02,2.8,11.94s2.43,7.53,2.72,11.46c.1,1.35,1.08,2.5,2.5,2.5,1.27,0,2.6-1.15,2.5-2.5-.61-8.1-4.7-15.38-5.52-23.4l-4.91,.66c.59,2.33,.73,4.69,.88,7.08,.16,2.54,.32,5.08,.48,7.62,.33,5.16,.65,10.33,.98,15.49l4.91-.66c-2.7-13.11-3.96-26.45-3.82-39.83,.03-3.22-4.97-3.22-5,0h0Z"/>
  <path class="cls-1" d="M42.38,21.9c-.57,11.71-.93,23.43-1.08,35.15-.03,2.19,2.74,3.27,4.27,1.77s1.88-3.61,1.99-5.74c.11-2.27,.26-4.54,.48-6.81,.46-4.63,1.22-9.23,2.22-13.78,.7-3.16-3.75-4.36-4.82-1.33-1.12,3.18-1.47,6.54-1.82,9.87-.16,1.52-.3,3.04-.57,4.55-.14,.78-.3,1.56-.5,2.33-.11,.42-.23,.84-.37,1.25-.06,.2-.54,.99-.19,.66l1.1-.64-.26,.05h1.33l-.24-.1,1.1,.64c.15,.35,.2,.41,.14,.16l-.05-.49c-.07-.57-.13-1.14-.19-1.7-.12-1.05-.24-2.11-.35-3.16-.15-1.34-1.04-2.5-2.5-2.5-1.24,0-2.65,1.15-2.5,2.5,.17,1.54,.34,3.08,.52,4.62s.24,3.01,1.41,4.1c1.33,1.24,3.4,.99,4.47-.44,.83-1.09,1.19-2.73,1.52-4.05,1.32-5.39,.92-11.06,2.78-16.33l-4.82-1.33c-.96,4.35-1.68,8.74-2.19,13.16-.24,2.1-.43,4.21-.56,6.32-.07,1.05-.06,2.11-.17,3.16-.05,.55-.09,1.08-.48,1.48l4.27,1.77c.15-11.72,.51-23.44,1.08-35.15,.16-3.22-4.84-3.21-5,0h0Z"/>
  <path class="cls-1" d="M43.35,1.25c-.38,.42-.58,.74-.75,1.29-.09,.29-.13,.6-.11,.9,.02,.41,.12,.81,.17,1.21l-.09-.66c.01,.1,.02,.2,0,.3l.09-.66s-.02,.1-.03,.14l.25-.6s-.03,.05-.04,.07l.39-.51s-.03,.03-.04,.05l.51-.39s-.03,.02-.05,.03l.6-.25s-.02,0-.04,.01l.66-.09s-.02,0-.04,0l.66,.09s-.02,0-.04-.01l.6,.25h-.02c.17,.12,.34,.25,.51,.38-.01,0-.02-.02-.03-.03l.39,.51s-.02-.04-.03-.06l.25,.6c-.07-.16-.12-.34-.15-.51l.09,.66c-.01-.11-.02-.23,0-.34l-.09,.66c.01-.09,.04-.17,.07-.25l-.25,.6c.02-.05,.05-.1,.08-.14l-.39,.51c.04-.05,.09-.1,.15-.15l-.51,.39c.06-.04,.11-.07,.18-.1l-.6,.25s.1-.03,.15-.04l-.66,.09c.05,0,.1,0,.15,0l-.66-.09s.09,.02,.13,.04l-.6-.25s.05,.02,.07,.04c.29,.18,.6,.28,.93,.3,.33,.07,.66,.06,1-.04,.33-.08,.61-.23,.85-.45,.27-.18,.49-.41,.64-.7l.25-.6c.12-.44,.12-.89,0-1.33l-.25-.6c-.22-.38-.52-.67-.9-.9-.11-.07-.25-.12-.37-.16-.09-.04-.25-.12-.37-.15-.26-.07-.54-.12-.82-.1s-.54,.04-.8,.11c-.13,.04-.27,.11-.37,.15s-.26,.1-.38,.17c-.51,.29-.8,.64-1.14,1.1-.1,.13-.14,.28-.21,.44-.07,.16-.16,.33-.19,.51-.05,.27-.11,.57-.11,.86s.06,.61,.11,.88c.03,.16,.07,.31,.13,.46,.09,.22,.17,.45,.28,.66v.02c.14,.17,.27,.34,.4,.51,.01,.01,.02,.02,.03,.03,.35,.35,.45,.37,.82,.53,.11,.05,.21,.1,.32,.13,.39,.12,.99,.12,1.38,0,.11-.03,.23-.09,.33-.14,.11-.05,.23-.08,.33-.15,.2-.12,.39-.26,.55-.43,.35-.36,.58-.75,.71-1.23,.08-.27,.11-.57,.12-.85,0-.07,0-.14-.01-.21-.05-.36-.11-.72-.16-1.07l.09,.66c-.01-.09-.02-.19,0-.28l-.09,.66c0-.05,.02-.1,.04-.15l-.25,.6s.04-.07,.06-.1l-.39,.51s.02-.02,.03-.03c.24-.23,.42-.49,.52-.8,.16-.3,.23-.62,.22-.96,.01-.34-.06-.67-.22-.96-.1-.31-.27-.58-.52-.8l-.51-.39c-.39-.23-.81-.34-1.26-.34l-.66,.09c-.42,.12-.79,.33-1.1,.64h0Z"/>
  <path class="cls-1" d="M46.31,4.07s-.05-.03-.07-.05l.51,.39c-.1-.08-.19-.17-.27-.27l.39,.51c-.1-.13-.18-.26-.24-.41l.25,.6c-.07-.16-.11-.33-.13-.5l.09,.66c-.02-.2-.02-.39,0-.59l-.09,.66c.04-.27,.11-.52,.22-.77l-.25,.6c.03-.08,.07-.15,.11-.23,.18-.29,.28-.6,.3-.93,.07-.33,.06-.66-.04-1-.08-.33-.23-.61-.45-.85-.18-.27-.41-.49-.7-.64-.58-.31-1.28-.46-1.93-.25-.6,.19-1.2,.57-1.49,1.15-.22,.44-.44,.91-.54,1.4-.07,.35-.12,.71-.14,1.06s.05,.73,.11,1.07c.07,.45,.26,.9,.49,1.29,.03,.06,.07,.11,.11,.16,.15,.21,.31,.43,.49,.62,.22,.25,.51,.45,.78,.63,.29,.18,.6,.28,.93,.3,.33,.07,.66,.06,1-.04,.33-.08,.61-.23,.85-.45,.27-.18,.49-.41,.64-.7,.31-.58,.46-1.28,.25-1.93l-.25-.6c-.22-.38-.52-.67-.9-.9h0Z"/>
</svg>